<svg id="BKash-Icon-Logo.wine" xmlns="http://www.w3.org/2000/svg" width="43.346" height="40.963" viewBox="0 0 43.346 40.963">
  <path id="Path_18" data-name="Path 18" d="M62.7,57.141l-19.154-3,2.539,11.414Z" transform="translate(-27.82 -34.585)" fill="#d12053"/>
  <path id="Path_19" data-name="Path 19" d="M62.71,26.983,48.277,6.93,43.56,23.985Z" transform="translate(-27.827 -4.427)" fill="#e2136e"/>
  <path id="Path_20" data-name="Path 20" d="M15.573,19.327.45,0l19.8,2.366Z" transform="translate(-0.287)" fill="#d12053"/>
  <path id="Path_21" data-name="Path 21" d="M8.4,17.154,0,9.24H2.21Z" transform="translate(0 -5.903)" fill="#9e1638"/>
  <path id="Path_22" data-name="Path 22" d="M91.415,35.46,87.861,45.1,82.1,37.132Z" transform="translate(-52.446 -22.652)" fill="#d12053"/>
  <path id="Path_23" data-name="Path 23" d="M56.77,71.083l13.946-5.6L71.3,63.7Z" transform="translate(-36.265 -40.692)" fill="#e2136e"/>
  <path id="Path_24" data-name="Path 24" d="M25.89,76.346,31.864,55.39l3.03,13.635Z" transform="translate(-16.539 -35.384)" fill="#9e1638"/>
  <path id="Path_25" data-name="Path 25" d="M106.836,35.67l-1.466,3.98,5.288-.087Z" transform="translate(-67.311 -22.786)" fill="#e2136e"/>
</svg>
