<svg id="lock-24px" xmlns="http://www.w3.org/2000/svg" width="55" height="55" viewBox="0 0 55 55">
  <path id="Path_11" data-name="Path 11" d="M0,0H55V55H0Z" fill="none"/>
  <path id="Path_12" data-name="Path 12" d="M41.333,17.792H38.667v-4.8C38.667,6.373,32.693,1,25.333,1S12,6.373,12,12.994v4.8H9.333A5.1,5.1,0,0,0,4,22.589V46.577a5.1,5.1,0,0,0,5.333,4.8h32a5.1,5.1,0,0,0,5.333-4.8V22.589A5.1,5.1,0,0,0,41.333,17.792Zm-16,21.589A5.1,5.1,0,0,1,20,34.583a5.1,5.1,0,0,1,5.333-4.8,5.1,5.1,0,0,1,5.333,4.8A5.1,5.1,0,0,1,25.333,39.381ZM33.6,17.792H17.067v-4.8c0-4.1,3.707-7.436,8.267-7.436S33.6,8.892,33.6,12.994Z" transform="translate(2.167 0.542)" fill="#00a83e"/>
</svg>
